<?xml version="1.0" encoding="utf-8"?>
<!-- Generator: Adobe Illustrator 26.3.1, SVG Export Plug-In . SVG Version: 6.00 Build 0)  -->
<svg version="1.1" id="Capa_1" xmlns="http://www.w3.org/2000/svg" xmlns:xlink="http://www.w3.org/1999/xlink" x="0px" y="0px"
	 viewBox="0 0 307.1 77.5" style="enable-background:new 0 0 307.1 77.5;" xml:space="preserve">
<style type="text/css">
	.st0{fill:#368DDD;}
</style>
<g>
	<path class="st0" d="M293.2,4.3v1.6h6.1v17.4h1.6V5.9h6.1V4.3H293.2z M176.9,23.3h1.6V5.9h6.1V4.3h-13.9v1.6h6.1V23.3z M246,4.4
		c-0.4-0.1-0.9-0.2-1.5-0.2c-0.6,0-1.3,0.1-1.9,0.3c-0.6,0.2-1.2,0.6-1.7,1c-0.5,0.4-0.9,0.9-1.2,1.5c-0.3,0.6-0.5,1.2-0.5,2
		c0,0.8,0.1,1.4,0.4,1.9c0.2,0.5,0.6,0.9,1,1.3c0.4,0.3,0.9,0.6,1.6,0.9c0.6,0.3,1.3,0.5,2,0.8c0.6,0.2,1.1,0.4,1.6,0.6
		c0.5,0.2,0.9,0.4,1.3,0.7c0.4,0.3,0.7,0.6,0.9,1c0.2,0.4,0.3,1,0.3,1.7c0,0.6-0.1,1.2-0.4,1.6c-0.3,0.5-0.6,0.8-1,1.1
		c-0.4,0.3-0.9,0.5-1.4,0.6c-0.5,0.1-1,0.2-1.6,0.2c-0.3,0-0.5,0-0.7,0c-0.2,0-0.5-0.1-0.7-0.1c-0.3-0.1-0.5-0.2-0.8-0.4
		c-0.3-0.2-0.6-0.4-1-0.8c-0.1-0.1-0.3-0.2-0.5-0.3c-0.2-0.1-0.4-0.1-0.6-0.1c-0.3,0-0.5,0.1-0.8,0.2l-0.2,0.1
		c0.1,0.2,0.3,0.5,0.5,0.7c0.2,0.3,0.5,0.5,0.8,0.8c1.1,1,2.5,1.4,4.1,1.4c0.8,0,1.6-0.1,2.3-0.4c0.7-0.2,1.4-0.6,1.9-1
		c0.5-0.5,1-1,1.3-1.7c0.3-0.6,0.5-1.4,0.5-2.2c0-0.8-0.1-1.5-0.4-2.2c-0.2-0.7-0.7-1.2-1.3-1.7c-0.2-0.2-0.5-0.3-0.7-0.5
		c-0.3-0.1-0.5-0.3-0.8-0.4s-0.6-0.2-0.9-0.4c-0.3-0.1-0.7-0.3-1.1-0.4c-0.7-0.3-1.3-0.5-1.8-0.7c-0.5-0.2-0.9-0.4-1.2-0.7
		c-0.3-0.2-0.5-0.5-0.6-0.8c-0.1-0.3-0.2-0.7-0.2-1.2c0-0.4,0.1-0.8,0.3-1.2c0.2-0.4,0.5-0.7,0.8-1c0.3-0.3,0.7-0.5,1.2-0.7
		c0.4-0.2,0.9-0.3,1.4-0.3c0.3,0,0.6,0,0.8,0.1s0.4,0.1,0.6,0.2c0.2,0.1,0.3,0.2,0.5,0.3c0.2,0.1,0.3,0.3,0.5,0.4
		c0.2,0.1,0.5,0.2,0.8,0.2c0.2,0,0.4,0,0.5-0.1c0.1,0,0.3-0.1,0.4-0.2l0.4-0.3c-0.3-0.3-0.5-0.5-0.8-0.8c-0.3-0.3-0.6-0.5-1-0.7
		C246.8,4.7,246.4,4.6,246,4.4 M227.9,5.5c-0.5,0.4-0.9,0.9-1.2,1.5c-0.3,0.6-0.5,1.2-0.5,2c0,0.8,0.1,1.4,0.4,1.9
		c0.2,0.5,0.6,0.9,1,1.3c0.4,0.3,0.9,0.6,1.5,0.9c0.6,0.3,1.3,0.5,2,0.8c0.6,0.2,1.1,0.4,1.6,0.6c0.5,0.2,0.9,0.4,1.3,0.7
		c0.4,0.3,0.7,0.6,0.9,1c0.2,0.4,0.3,1,0.3,1.7c0,0.6-0.1,1.2-0.4,1.6c-0.3,0.5-0.6,0.8-1,1.1c-0.4,0.3-0.9,0.5-1.4,0.6
		c-0.5,0.1-1,0.2-1.6,0.2c-0.3,0-0.5,0-0.7,0c-0.2,0-0.5-0.1-0.7-0.1c-0.3-0.1-0.5-0.2-0.8-0.4c-0.3-0.2-0.6-0.4-1-0.8
		c-0.1-0.1-0.3-0.2-0.5-0.3c-0.2-0.1-0.4-0.1-0.6-0.1c-0.3,0-0.5,0.1-0.8,0.2l-0.2,0.1c0.1,0.2,0.3,0.5,0.5,0.7
		c0.2,0.3,0.5,0.5,0.8,0.8c1.1,1,2.5,1.4,4.1,1.4c0.8,0,1.6-0.1,2.3-0.4c0.7-0.2,1.4-0.6,1.9-1c0.5-0.5,1-1,1.3-1.7
		c0.3-0.6,0.5-1.4,0.5-2.2c0-0.8-0.1-1.5-0.4-2.2c-0.2-0.7-0.7-1.2-1.3-1.7c-0.2-0.2-0.5-0.3-0.7-0.5c-0.3-0.1-0.5-0.3-0.8-0.4
		c-0.3-0.1-0.6-0.2-0.9-0.4c-0.3-0.1-0.7-0.3-1.1-0.4c-0.7-0.3-1.3-0.5-1.8-0.7c-0.5-0.2-0.9-0.4-1.2-0.7c-0.3-0.2-0.5-0.5-0.6-0.8
		c-0.1-0.3-0.2-0.7-0.2-1.2c0-0.4,0.1-0.8,0.3-1.2c0.2-0.4,0.5-0.7,0.8-1c0.3-0.3,0.7-0.5,1.2-0.7c0.5-0.2,0.9-0.3,1.4-0.3
		c0.3,0,0.6,0,0.8,0.1c0.2,0.1,0.4,0.1,0.6,0.2c0.2,0.1,0.3,0.2,0.5,0.3c0.2,0.1,0.3,0.3,0.5,0.4c0.2,0.1,0.5,0.2,0.8,0.2
		c0.2,0,0.4,0,0.5-0.1c0.1,0,0.3-0.1,0.4-0.2l0.4-0.3c-0.3-0.3-0.5-0.5-0.8-0.8c-0.3-0.3-0.6-0.5-1-0.7c-0.4-0.2-0.8-0.4-1.2-0.5
		c-0.4-0.1-0.9-0.2-1.5-0.2c-0.6,0-1.3,0.1-1.9,0.3C228.9,4.8,228.4,5.1,227.9,5.5 M288.1,20.7c0-0.1-0.1-0.2-0.1-0.3
		c0-0.1-0.1-0.2-0.1-0.3c0-0.1-0.1-0.2-0.2-0.3l-10.3-15c-0.1-0.2-0.3-0.3-0.5-0.4c-0.2-0.1-0.5-0.1-0.8-0.1H275v19h1.6V6.2
		c0,0.1,0,0.2,0.1,0.2c0,0.1,0.1,0.1,0.1,0.2c0,0.1,0.1,0.1,0.1,0.2l11.2,16.4h1.6v-19h-1.6V20.7z M204.6,13.7
		c0-1.3-0.2-2.5-0.7-3.7c-0.5-1.2-1.2-2.2-2-3c-0.9-0.9-1.9-1.5-3-2c-1.2-0.5-2.4-0.7-3.7-0.7c-1.3,0-2.5,0.2-3.7,0.7
		c-1.1,0.5-2.2,1.2-3,2c-0.9,0.9-1.5,1.9-2,3c-0.5,1.2-0.7,2.4-0.7,3.7c0,1.3,0.2,2.5,0.7,3.7s1.2,2.2,2,3s1.9,1.5,3,2
		c1.1,0.5,2.4,0.7,3.7,0.7c1.3,0,2.5-0.2,3.7-0.7c1.2-0.5,2.2-1.2,3-2c0.9-0.9,1.5-1.9,2-3S204.6,15,204.6,13.7 M202.7,15.8
		c-0.2,0.7-0.5,1.3-0.8,1.9c-0.3,0.6-0.8,1.1-1.2,1.6c-0.5,0.5-1,0.9-1.6,1.2c-0.6,0.3-1.2,0.6-1.9,0.8c-0.7,0.2-1.4,0.3-2.1,0.3
		c-0.7,0-1.4-0.1-2.1-0.3c-0.7-0.2-1.3-0.5-1.9-0.8c-0.6-0.3-1.1-0.8-1.6-1.2c-0.5-0.5-0.9-1-1.2-1.6c-0.3-0.6-0.6-1.2-0.8-1.9
		s-0.3-1.4-0.3-2.1s0.1-1.4,0.3-2.1c0.2-0.7,0.5-1.3,0.8-1.9c0.3-0.6,0.8-1.1,1.2-1.6c0.5-0.5,1-0.9,1.6-1.2
		c0.6-0.3,1.2-0.6,1.9-0.8c0.7-0.2,1.4-0.3,2.1-0.3c1.1,0,2.1,0.2,3.1,0.6c1,0.4,1.8,1,2.5,1.7c0.7,0.7,1.3,1.5,1.7,2.5
		c0.4,1,0.6,2,0.6,3.1C202.9,14.4,202.8,15.1,202.7,15.8 M220.6,21.1c0.7-0.7,1.2-1.4,1.6-2.3c0.4-0.9,0.6-1.9,0.6-2.9V4.3h-1.6
		v11.6c0,0.8-0.2,1.5-0.5,2.2c-0.3,0.7-0.7,1.3-1.2,1.8c-0.5,0.5-1.1,0.9-1.8,1.2c-0.7,0.3-1.4,0.5-2.2,0.5c-0.8,0-1.5-0.2-2.2-0.5
		c-0.7-0.3-1.3-0.7-1.8-1.2c-0.5-0.5-0.9-1.1-1.2-1.8c-0.3-0.7-0.5-1.4-0.5-2.2V4.3H208v11.6c0,1,0.2,2,0.6,2.9
		c0.4,0.9,0.9,1.7,1.6,2.3c0.7,0.7,1.5,1.2,2.3,1.6c0.9,0.4,1.8,0.6,2.9,0.6c1,0,2-0.2,2.9-0.6C219.2,22.3,219.9,21.7,220.6,21.1
		 M270,23.3h1.6v-19H270V23.3z M264.2,13.8c-0.7-1.6-1.4-3.1-2-4.7c-0.7-1.6-1.4-3.2-2-4.8h-1.4l-8.1,19h0.7c0.3,0,0.6-0.1,0.9-0.3
		c0.3-0.2,0.5-0.4,0.6-0.7l1.5-3.5h10.3l1.5,3.5c0.1,0.3,0.3,0.5,0.6,0.7c0.3,0.2,0.5,0.3,0.9,0.3h0.7c-0.7-1.6-1.4-3.2-2-4.8
		C265.6,16.9,264.9,15.3,264.2,13.8 M255.1,17.1l4.2-9.8c0-0.1,0.1-0.2,0.1-0.3c0-0.1,0.1-0.3,0.1-0.4c0-0.1,0-0.3,0.1-0.4
		c0,0.1,0,0.3,0.1,0.4c0,0.1,0,0.2,0.1,0.4s0.1,0.2,0.1,0.3l4.2,9.8H255.1z"/>
	<path class="st0" d="M97,21.6h-8.5V4.3h-1.6v19H97V21.6z M100.7,20.5c0.9,0.9,1.9,1.5,3,2c1.2,0.5,2.4,0.7,3.7,0.7
		c1.3,0,2.5-0.2,3.7-0.7c1.2-0.5,2.2-1.2,3-2c0.9-0.9,1.5-1.9,2-3c0.5-1.2,0.7-2.4,0.7-3.7c0-1.3-0.2-2.5-0.7-3.7
		c-0.5-1.2-1.2-2.2-2-3c-0.9-0.9-1.9-1.5-3-2c-1.2-0.5-2.4-0.7-3.7-0.7c-1.3,0-2.5,0.2-3.7,0.7c-1.1,0.5-2.2,1.2-3,2
		c-0.9,0.9-1.5,1.9-2,3s-0.7,2.4-0.7,3.7c0,1.3,0.2,2.5,0.7,3.7C99.2,18.6,99.8,19.6,100.7,20.5 M99.8,11.7c0.2-0.7,0.5-1.3,0.8-1.9
		c0.3-0.6,0.8-1.1,1.2-1.6c0.5-0.5,1-0.9,1.6-1.2c0.6-0.3,1.2-0.6,1.9-0.8c0.7-0.2,1.4-0.3,2.1-0.3c1.1,0,2.1,0.2,3.1,0.6
		c1,0.4,1.8,1,2.5,1.7c0.7,0.7,1.3,1.5,1.7,2.5c0.4,1,0.6,2,0.6,3.1c0,0.7-0.1,1.4-0.3,2.1c-0.2,0.7-0.5,1.3-0.8,1.9
		c-0.3,0.6-0.8,1.1-1.2,1.6c-0.5,0.5-1,0.9-1.6,1.2c-0.6,0.3-1.2,0.6-1.9,0.8c-0.7,0.2-1.4,0.3-2.1,0.3c-0.7,0-1.4-0.1-2.1-0.3
		c-0.7-0.2-1.3-0.5-1.9-0.8c-0.6-0.3-1.1-0.8-1.6-1.2c-0.5-0.5-0.9-1-1.2-1.6c-0.3-0.6-0.6-1.2-0.8-1.9c-0.2-0.7-0.3-1.4-0.3-2.1
		S99.6,12.3,99.8,11.7 M121.7,15.5h4.9c0.8,0,1.5-0.1,2.2-0.4c0.7-0.3,1.3-0.7,1.8-1.2c0.5-0.5,0.9-1.1,1.2-1.8
		c0.3-0.7,0.4-1.4,0.4-2.2c0-0.8-0.1-1.5-0.4-2.2c-0.3-0.7-0.7-1.3-1.2-1.8c-0.5-0.5-1.1-0.9-1.8-1.2c-0.7-0.3-1.4-0.4-2.2-0.4h-6.5
		v19h1.6V15.5z M121.7,5.9h4.9c0.6,0,1.1,0.1,1.6,0.3c0.5,0.2,0.9,0.5,1.3,0.9c0.4,0.4,0.6,0.8,0.9,1.3c0.2,0.5,0.3,1,0.3,1.6
		c0,0.6-0.1,1.1-0.3,1.6c-0.2,0.5-0.5,0.9-0.9,1.3c-0.4,0.4-0.8,0.6-1.3,0.9c-0.5,0.2-1,0.3-1.6,0.3h-4.9V5.9z M108.5,2.9
		c0.2-0.1,0.3-0.2,0.5-0.4l2.1-2.6h-1c-0.3,0-0.5,0.1-0.8,0.2c-0.2,0.1-0.4,0.2-0.5,0.4c0,0-0.1,0.1-0.1,0.2
		c-0.1,0.1-0.2,0.3-0.4,0.5c-0.1,0.2-0.3,0.5-0.5,0.8c-0.2,0.3-0.4,0.7-0.6,1.1h0.6C108.1,3,108.3,3,108.5,2.9 M163.8,21.6h-10.9
		c-0.1,0-0.2,0-0.3,0c-0.1,0-0.1,0-0.2,0.1c-0.1,0-0.1,0.1-0.1,0.1l10.9-15.7c0.3-0.3,0.4-0.8,0.4-1.3V4.3h-13.2v1.6h10.9
		l-10.7,15.3c-0.3,0.4-0.5,0.9-0.5,1.4v0.6h13.6V21.6z M146.7,21.6h-9.5v-7.1h7.7v-1.6h-7.7V5.9h9.5V4.3h-11.1v19h11.1V21.6z"/>
	<path class="st0" d="M125.4,31.1h-1.8v21.3h11.4v-1.8h-9.6V31.1z M152.2,41.7c-0.8-1.8-1.5-3.5-2.3-5.3c-0.8-1.8-1.5-3.6-2.3-5.4
		H146l-9.1,21.3h0.8c0.4,0,0.7-0.1,1-0.3c0.3-0.2,0.5-0.5,0.6-0.8l1.7-4h11.5l1.7,4c0.1,0.3,0.4,0.6,0.6,0.8c0.3,0.2,0.6,0.3,1,0.3
		h0.8c-0.8-1.8-1.5-3.6-2.3-5.3C153.7,45.3,152.9,43.5,152.2,41.7 M141.9,45.5l4.7-10.9c0-0.1,0.1-0.2,0.1-0.4
		c0-0.1,0.1-0.3,0.1-0.4c0-0.1,0.1-0.3,0.1-0.4c0,0.1,0,0.3,0.1,0.4c0,0.1,0,0.3,0.1,0.4c0,0.1,0.1,0.3,0.1,0.4l4.7,10.9H141.9z
		 M192.9,34.1c-1-1-2.1-1.7-3.4-2.3c-1.3-0.6-2.7-0.8-4.2-0.8s-2.9,0.3-4.1,0.8c-1.3,0.6-2.4,1.3-3.4,2.3c-1,1-1.7,2.1-2.3,3.4
		c-0.6,1.3-0.8,2.7-0.8,4.2c0,1.5,0.3,2.9,0.8,4.2c0.6,1.3,1.3,2.4,2.3,3.4c1,1,2.1,1.7,3.4,2.3c1.3,0.6,2.7,0.8,4.1,0.8
		s2.9-0.3,4.2-0.8c1.3-0.6,2.4-1.3,3.4-2.3c1-1,1.7-2.1,2.3-3.4c0.6-1.3,0.8-2.7,0.8-4.2c0-1.5-0.3-2.9-0.8-4.2
		C194.6,36.2,193.8,35.1,192.9,34.1 M193.9,44c-0.2,0.8-0.5,1.5-0.9,2.1c-0.4,0.7-0.8,1.3-1.4,1.8c-0.5,0.5-1.1,1-1.8,1.4
		c-0.7,0.4-1.4,0.7-2.1,0.9c-0.8,0.2-1.5,0.3-2.4,0.3c-0.8,0-1.6-0.1-2.4-0.3c-0.8-0.2-1.5-0.5-2.1-0.9c-0.7-0.4-1.3-0.9-1.8-1.4
		c-0.5-0.5-1-1.1-1.4-1.8c-0.4-0.7-0.7-1.4-0.9-2.1c-0.2-0.8-0.3-1.5-0.3-2.4c0-0.8,0.1-1.6,0.3-2.4c0.2-0.8,0.5-1.5,0.9-2.1
		c0.4-0.7,0.8-1.3,1.4-1.8c0.5-0.5,1.1-1,1.8-1.4c0.7-0.4,1.4-0.7,2.1-0.9c0.8-0.2,1.5-0.3,2.4-0.3c1.2,0,2.4,0.2,3.4,0.7
		c1.1,0.5,2,1.1,2.8,1.9c0.8,0.8,1.4,1.7,1.9,2.8c0.5,1.1,0.7,2.2,0.7,3.4C194.2,42.5,194.1,43.3,193.9,44 M172.7,31.4
		c-0.3,0.2-0.5,0.5-0.6,0.8l-7.2,16.8c0,0.1-0.1,0.2-0.1,0.4c0,0.1-0.1,0.3-0.1,0.4c0,0.1,0,0.3-0.1,0.4c0-0.1,0-0.3-0.1-0.4
		c0-0.1,0-0.3-0.1-0.4c0-0.1-0.1-0.3-0.1-0.4l-7.2-16.8c-0.1-0.3-0.4-0.6-0.6-0.8c-0.3-0.2-0.6-0.3-1-0.3h-0.8l9.1,21.3h1.5
		c0.8-1.8,1.5-3.6,2.3-5.4c0.8-1.8,1.5-3.5,2.3-5.3c0.8-1.8,1.5-3.5,2.3-5.3c0.8-1.8,1.5-3.6,2.3-5.4h-0.8
		C173.4,31.1,173,31.2,172.7,31.4 M97.8,42c-0.3-0.2-0.5-0.4-0.8-0.5c-0.3-0.2-0.6-0.3-0.9-0.5c-0.3-0.1-0.7-0.3-1-0.4
		c-0.4-0.1-0.8-0.3-1.2-0.4c-0.8-0.3-1.5-0.5-2-0.8c-0.5-0.2-1-0.5-1.3-0.7c-0.3-0.3-0.6-0.6-0.7-0.9c-0.1-0.3-0.2-0.8-0.2-1.3
		c0-0.5,0.1-0.9,0.3-1.4c0.2-0.4,0.5-0.8,0.9-1.1c0.4-0.3,0.8-0.6,1.3-0.8s1-0.3,1.6-0.3c0.4,0,0.7,0,1,0.1c0.2,0.1,0.5,0.1,0.7,0.2
		c0.2,0.1,0.4,0.2,0.5,0.4c0.2,0.1,0.4,0.3,0.6,0.4c0.3,0.2,0.6,0.2,0.9,0.2c0.2,0,0.4,0,0.5-0.1c0.2-0.1,0.3-0.1,0.4-0.2l0.5-0.3
		c-0.3-0.3-0.6-0.6-0.9-0.9c-0.3-0.3-0.7-0.6-1.1-0.8c-0.4-0.2-0.9-0.5-1.4-0.6c-0.5-0.2-1.1-0.2-1.7-0.2c-0.7,0-1.4,0.1-2.1,0.4
		c-0.7,0.3-1.4,0.6-1.9,1.1c-0.6,0.5-1,1-1.4,1.7c-0.4,0.7-0.5,1.4-0.5,2.2c0,0.9,0.1,1.6,0.4,2.2c0.3,0.6,0.6,1,1.1,1.4
		c0.5,0.4,1.1,0.7,1.7,1c0.7,0.3,1.4,0.6,2.3,0.9c0.6,0.3,1.3,0.5,1.8,0.7c0.6,0.2,1.1,0.4,1.5,0.8c0.4,0.3,0.7,0.7,1,1.2
		c0.2,0.5,0.3,1.1,0.3,1.9c0,0.7-0.1,1.3-0.4,1.8c-0.3,0.5-0.7,0.9-1.1,1.3c-0.5,0.3-1,0.6-1.6,0.7c-0.6,0.1-1.2,0.2-1.8,0.2
		c-0.3,0-0.6,0-0.8,0c-0.3,0-0.5-0.1-0.8-0.2c-0.3-0.1-0.6-0.2-0.9-0.4c-0.3-0.2-0.7-0.5-1.1-0.9c-0.2-0.2-0.4-0.3-0.6-0.3
		c-0.2-0.1-0.4-0.1-0.7-0.1c-0.3,0-0.6,0.1-0.9,0.3L86.9,49c0.1,0.3,0.3,0.5,0.6,0.8c0.2,0.3,0.5,0.6,0.9,0.9
		c1.2,1.1,2.8,1.6,4.6,1.6c0.9,0,1.8-0.1,2.6-0.4c0.8-0.3,1.5-0.7,2.1-1.2c0.6-0.5,1.1-1.1,1.5-1.9c0.4-0.7,0.5-1.5,0.5-2.5
		c0-0.9-0.1-1.7-0.4-2.5C99,43.2,98.5,42.6,97.8,42 M104.6,37.2c0.4-0.7,0.8-1.3,1.4-1.8c0.5-0.5,1.1-1,1.8-1.4
		c0.7-0.4,1.4-0.7,2.1-0.9c0.8-0.2,1.5-0.3,2.4-0.3c1,0,1.8,0.1,2.7,0.4c0.8,0.3,1.6,0.7,2.3,1.2c0.3,0.2,0.6,0.3,0.9,0.3
		c0.3,0,0.5,0,0.7-0.1c0.2-0.1,0.4-0.2,0.6-0.4l0.1-0.1c-1-0.9-2.1-1.7-3.3-2.2c-1.3-0.5-2.6-0.8-4.1-0.8c-1.5,0-2.9,0.3-4.2,0.8
		c-1.3,0.6-2.4,1.3-3.4,2.3c-1,1-1.7,2.1-2.3,3.4c-0.6,1.3-0.8,2.7-0.8,4.2c0,1.5,0.3,2.9,0.8,4.2c0.6,1.3,1.3,2.4,2.3,3.4
		c1,1,2.1,1.7,3.4,2.3c1.3,0.6,2.7,0.8,4.2,0.8c1.4,0,2.8-0.3,4.1-0.8c1.3-0.5,2.4-1.3,3.3-2.2l-0.1-0.1c-0.2-0.2-0.4-0.3-0.6-0.4
		c-0.2-0.1-0.5-0.1-0.7-0.1c-0.2,0-0.3,0-0.5,0.1c-0.2,0-0.3,0.1-0.4,0.2c-0.7,0.5-1.5,0.9-2.4,1.1c-0.8,0.3-1.7,0.4-2.7,0.4
		c-0.8,0-1.6-0.1-2.4-0.3c-0.8-0.2-1.5-0.5-2.1-0.9c-0.7-0.4-1.3-0.9-1.8-1.4c-0.5-0.5-1-1.1-1.4-1.8c-0.4-0.7-0.7-1.4-0.9-2.1
		c-0.2-0.8-0.3-1.5-0.3-2.4c0-0.8,0.1-1.6,0.3-2.4C103.9,38.6,104.2,37.9,104.6,37.2"/>
	<path class="st0" d="M222,42.8h-0.9c-0.5,0-0.9,0.1-1.3,0.3c-0.4,0.2-0.7,0.5-0.9,0.9l-2.1,2.7l-1.8-1.9l-5.4-5.4
		c-0.4-0.4-0.8-0.9-1.1-1.4c-0.3-0.5-0.4-1-0.4-1.4c0-0.5,0.1-0.9,0.3-1.4c0.2-0.5,0.5-0.9,0.8-1.2c0.3-0.3,0.7-0.6,1.2-0.8
		c0.4-0.2,0.9-0.3,1.4-0.3c0.3,0,0.6,0,0.9,0.1c0.2,0,0.5,0.1,0.7,0.2c0.2,0.1,0.4,0.2,0.6,0.3c0.2,0.1,0.4,0.2,0.6,0.4
		c0.1,0.1,0.3,0.2,0.6,0.3c0.2,0.1,0.5,0.1,0.9,0.1c0.2,0,0.5,0,0.7-0.1c0.2-0.1,0.4-0.2,0.6-0.3l0.1,0c-0.7-0.9-1.6-1.5-2.5-2
		c-0.9-0.5-1.9-0.7-3-0.7c-0.7,0-1.4,0.1-2.1,0.4c-0.7,0.3-1.3,0.7-1.8,1.2c-0.5,0.5-1,1.1-1.3,1.8c-0.3,0.7-0.5,1.4-0.5,2.2
		c0,0.8,0.2,1.5,0.6,2.2c0.4,0.7,0.8,1.3,1.4,1.9c-0.1,0-0.1-0.1-0.2-0.1c-0.1,0-0.1,0-0.2-0.1c-0.1,0-0.2,0-0.3,0c0,0-0.1,0-0.1,0
		c0,0-0.1,0-0.1,0c0,0-0.1,0-0.1,0c-0.6,0.4-1.2,0.8-1.6,1.2c-0.5,0.4-0.8,0.9-1.1,1.4c-0.3,0.5-0.5,1-0.6,1.5
		c-0.1,0.5-0.2,1-0.2,1.5v0.1c0,0.9,0.2,1.7,0.6,2.5c0.4,0.8,0.9,1.4,1.5,2c0.6,0.6,1.3,1,2.1,1.3c0.8,0.3,1.6,0.5,2.5,0.5h0.1
		c1.1,0,2.2-0.3,3.3-0.8c1.1-0.5,2.2-1.3,3.2-2.3l1.7,1.7c0.2,0.2,0.4,0.4,0.6,0.5c0.2,0.2,0.4,0.3,0.6,0.4c0.2,0.1,0.4,0.2,0.7,0.2
		c0.3,0.1,0.6,0.1,0.9,0.1h1.1l-4.4-4.4L222,42.8z M213,50.1c-0.8,0.4-1.7,0.6-2.6,0.6c-0.7,0-1.3-0.1-1.9-0.4
		c-0.6-0.3-1.1-0.6-1.6-1c-0.5-0.4-0.8-0.9-1.1-1.4c-0.3-0.5-0.4-1.1-0.4-1.6c0-0.5,0.1-1,0.3-1.5c0.2-0.5,0.5-0.9,0.8-1.3
		c0.3-0.4,0.7-0.7,1.2-1c0.5-0.3,1-0.5,1.5-0.7l4,3.9l2.4,2.4C214.7,49,213.8,49.7,213,50.1"/>
	<path class="st0" d="M283.4,37.6c-0.6-1.3-1.3-2.4-2.3-3.4c-1-1-2.1-1.7-3.4-2.3c-1.3-0.6-2.7-0.8-4.2-0.8c-1.5,0-2.9,0.3-4.1,0.8
		c-1.3,0.6-2.4,1.3-3.4,2.3c-1,1-1.7,2.1-2.3,3.4c-0.6,1.3-0.8,2.7-0.8,4.1c0,1.5,0.3,2.9,0.8,4.1c0.6,1.3,1.3,2.4,2.3,3.4
		c1,1,2.1,1.7,3.4,2.3c1.3,0.6,2.7,0.8,4.1,0.8c1.5,0,2.9-0.3,4.2-0.8c1.3-0.6,2.4-1.3,3.4-2.3c1-1,1.7-2.1,2.3-3.4
		c0.6-1.3,0.8-2.7,0.8-4.1C284.2,40.3,284,38.9,283.4,37.6 M282.1,44.1c-0.2,0.8-0.5,1.5-0.9,2.1c-0.4,0.7-0.8,1.3-1.4,1.8
		c-0.5,0.5-1.1,1-1.8,1.4c-0.7,0.4-1.4,0.7-2.1,0.9c-0.8,0.2-1.5,0.3-2.3,0.3c-0.8,0-1.6-0.1-2.3-0.3c-0.8-0.2-1.5-0.5-2.1-0.9
		c-0.7-0.4-1.2-0.8-1.8-1.4c-0.5-0.5-1-1.1-1.4-1.8c-0.4-0.7-0.7-1.4-0.9-2.1c-0.2-0.7-0.3-1.5-0.3-2.3c0-0.8,0.1-1.6,0.3-2.3
		c0.2-0.8,0.5-1.5,0.9-2.1c0.4-0.7,0.8-1.3,1.4-1.8c0.5-0.5,1.1-1,1.8-1.4c0.7-0.4,1.4-0.7,2.1-0.9c0.8-0.2,1.5-0.3,2.3-0.3
		c1.2,0,2.4,0.2,3.4,0.7c1.1,0.5,2,1.1,2.8,1.9c0.8,0.8,1.4,1.7,1.9,2.8c0.5,1.1,0.7,2.2,0.7,3.4C282.4,42.5,282.3,43.3,282.1,44.1
		 M307,50.3c-0.1-0.2-0.2-0.3-0.3-0.5c-0.1-0.1-0.3-0.2-0.5-0.3c-0.2-0.1-0.4-0.1-0.6-0.1c-0.2,0-0.4,0-0.6,0.1
		c-0.2,0.1-0.3,0.2-0.5,0.3c-0.1,0.1-0.2,0.3-0.3,0.5c-0.1,0.2-0.1,0.4-0.1,0.6c0,0.2,0,0.4,0.1,0.6c0.1,0.2,0.2,0.3,0.3,0.5
		c0.1,0.1,0.3,0.2,0.5,0.3c0.2,0.1,0.4,0.1,0.6,0.1c0.2,0,0.4,0,0.6-0.1c0.2-0.1,0.3-0.2,0.5-0.3c0.1-0.1,0.2-0.3,0.3-0.5
		c0.1-0.2,0.1-0.4,0.1-0.6C307.1,50.7,307,50.5,307,50.3 M259.8,42.1c-0.3-0.2-0.5-0.4-0.8-0.5c-0.3-0.2-0.6-0.3-0.9-0.4
		c-0.3-0.1-0.7-0.3-1-0.4c-0.4-0.1-0.8-0.3-1.2-0.4c-0.8-0.3-1.5-0.5-2-0.8c-0.5-0.2-1-0.5-1.3-0.7c-0.3-0.3-0.6-0.6-0.7-0.9
		c-0.1-0.3-0.2-0.8-0.2-1.3c0-0.5,0.1-0.9,0.3-1.4c0.2-0.4,0.5-0.8,0.9-1.1c0.4-0.3,0.8-0.6,1.3-0.8c0.5-0.2,1-0.3,1.6-0.3
		c0.4,0,0.7,0,1,0.1c0.2,0.1,0.5,0.1,0.7,0.2c0.2,0.1,0.4,0.2,0.5,0.3c0.2,0.1,0.4,0.3,0.6,0.4c0.3,0.2,0.6,0.2,0.9,0.2
		c0.2,0,0.4,0,0.5-0.1c0.2-0.1,0.3-0.1,0.4-0.2l0.5-0.3c-0.3-0.3-0.6-0.6-0.9-0.9c-0.3-0.3-0.7-0.6-1.1-0.8
		c-0.4-0.2-0.9-0.4-1.4-0.6c-0.5-0.2-1.1-0.2-1.7-0.2c-0.7,0-1.4,0.1-2.1,0.4c-0.7,0.3-1.4,0.6-1.9,1.1c-0.6,0.5-1,1-1.4,1.7
		c-0.4,0.7-0.5,1.4-0.5,2.2c0,0.9,0.1,1.6,0.4,2.2c0.3,0.6,0.6,1,1.1,1.4c0.5,0.4,1.1,0.7,1.7,1c0.7,0.3,1.4,0.6,2.3,0.9
		c0.6,0.3,1.3,0.5,1.8,0.7c0.6,0.2,1,0.4,1.5,0.7c0.4,0.3,0.7,0.7,1,1.2c0.2,0.5,0.3,1.1,0.3,1.9c0,0.7-0.1,1.3-0.4,1.8
		c-0.3,0.5-0.7,0.9-1.1,1.3c-0.5,0.3-1,0.6-1.6,0.7c-0.6,0.1-1.2,0.2-1.8,0.2c-0.3,0-0.6,0-0.8,0c-0.3,0-0.5-0.1-0.8-0.2
		c-0.3-0.1-0.6-0.2-0.9-0.4c-0.3-0.2-0.7-0.5-1.1-0.8c-0.2-0.2-0.4-0.3-0.6-0.3c-0.2-0.1-0.4-0.1-0.7-0.1c-0.3,0-0.6,0.1-0.9,0.3
		l-0.2,0.1c0.1,0.3,0.3,0.5,0.6,0.8c0.2,0.3,0.5,0.6,0.9,0.9c1.2,1.1,2.8,1.6,4.6,1.6c0.9,0,1.8-0.1,2.6-0.4
		c0.8-0.3,1.5-0.7,2.1-1.2c0.6-0.5,1.1-1.1,1.5-1.9c0.4-0.7,0.5-1.5,0.5-2.5c0-0.9-0.1-1.7-0.4-2.5C261,43.2,260.5,42.6,259.8,42.1
		 M244.4,41.8c-0.8-1.8-1.5-3.6-2.3-5.4c-0.8-1.8-1.5-3.6-2.3-5.4h-1.5l-9.1,21.5h0.8c0.4,0,0.7-0.1,1-0.3c0.3-0.2,0.5-0.5,0.6-0.8
		l1.7-4h11.5l1.7,4c0.1,0.3,0.4,0.6,0.6,0.8c0.3,0.2,0.6,0.3,1,0.3h0.8c-0.8-1.8-1.5-3.6-2.3-5.4C245.9,45.4,245.1,43.6,244.4,41.8
		 M234.1,45.6l4.7-11c0-0.1,0.1-0.2,0.1-0.4c0-0.1,0.1-0.3,0.1-0.4c0-0.1,0.1-0.3,0.1-0.5c0,0.1,0,0.3,0.1,0.5c0,0.1,0,0.3,0.1,0.4
		c0,0.1,0.1,0.3,0.1,0.4l4.7,11H234.1z M288.6,37.3c0.4-0.7,0.8-1.3,1.4-1.8c0.5-0.5,1.1-1,1.8-1.4c0.7-0.4,1.4-0.7,2.1-0.9
		c0.8-0.2,1.5-0.3,2.3-0.3c1,0,1.8,0.1,2.7,0.4c0.8,0.3,1.6,0.7,2.3,1.2c0.3,0.2,0.6,0.3,0.9,0.3c0.3,0,0.5,0,0.7-0.1
		c0.2-0.1,0.4-0.2,0.6-0.4l0.1-0.1c-1-0.9-2.1-1.7-3.3-2.2c-1.3-0.5-2.6-0.8-4.1-0.8c-1.5,0-2.9,0.3-4.1,0.8
		c-1.3,0.6-2.4,1.3-3.4,2.3s-1.7,2.1-2.3,3.4c-0.6,1.3-0.8,2.7-0.8,4.1c0,1.5,0.3,2.9,0.8,4.1c0.6,1.3,1.3,2.4,2.3,3.4
		c1,1,2.1,1.7,3.4,2.3c1.3,0.6,2.7,0.8,4.1,0.8c1.4,0,2.8-0.3,4.1-0.8c1.3-0.5,2.4-1.3,3.3-2.2l-0.1-0.1c-0.2-0.2-0.4-0.3-0.6-0.4
		c-0.2-0.1-0.5-0.1-0.7-0.1c-0.2,0-0.3,0-0.5,0.1c-0.2,0-0.3,0.1-0.4,0.2c-0.7,0.5-1.5,0.9-2.3,1.1c-0.8,0.3-1.7,0.4-2.7,0.4
		c-0.8,0-1.6-0.1-2.3-0.3c-0.8-0.2-1.5-0.5-2.1-0.9c-0.7-0.4-1.2-0.8-1.8-1.4c-0.5-0.5-1-1.1-1.4-1.8c-0.4-0.7-0.7-1.4-0.9-2.1
		c-0.2-0.7-0.3-1.5-0.3-2.3c0-0.8,0.1-1.6,0.3-2.3C287.9,38.6,288.2,37.9,288.6,37.3"/>
	<path class="st0" d="M73.2,31.5v18.8c0,0,0,0,0,0c-0.3,0-0.6,0-0.9,0c-0.1,0-0.2,0-0.3,0c-0.2,0-0.4-0.1-0.6-0.1
		c-0.1,0-0.2,0-0.3-0.1c-0.2,0-0.4-0.1-0.5-0.1c-0.1,0-0.2-0.1-0.3-0.1c-0.2-0.1-0.3-0.1-0.5-0.2c-0.1,0-0.2-0.1-0.3-0.1
		c-0.2-0.1-0.4-0.2-0.6-0.3c-0.1,0-0.1-0.1-0.2-0.1c-0.2-0.1-0.5-0.3-0.7-0.4c-0.1,0-0.1-0.1-0.2-0.1c-2.4-1.7-4-4.5-4-7.7
		C63.8,35.7,68,31.5,73.2,31.5V4.3H0v73.2h73.2V50.3c5.2,0,9.4-4.2,9.4-9.4C82.6,35.7,78.4,31.5,73.2,31.5 M26.8,52.8H13.5V29h3.2
		v20.6h10.1V52.8z M43.9,32.2h-7.2v20.6h-3.2V32.2h-7.3V29h17.7V32.2z M59.6,48.5c-0.4,0.9-1,1.6-1.8,2.3c-0.7,0.6-1.6,1.1-2.6,1.5
		s-2,0.5-3,0.5c-2.1,0-3.8-0.6-5.3-1.9c-0.3-0.3-0.5-0.5-0.7-0.8c-0.2-0.3-0.4-0.5-0.6-0.7c-0.2-0.2-0.3-0.5-0.4-0.6
		c-0.1-0.2-0.2-0.4-0.3-0.5l0.8-0.4c0.4-0.2,0.8-0.4,1.3-0.4c0.7,0,1.3,0.3,1.8,0.8l0.3,0.2c0.4,0.3,0.9,0.6,1.4,0.8
		c0.5,0.2,1.1,0.3,1.7,0.3c0.5,0,1.1-0.1,1.6-0.3c0.6-0.2,1.1-0.4,1.5-0.8c0.5-0.3,0.8-0.7,1.1-1.2c0.3-0.5,0.4-1.1,0.4-1.7
		c0-0.6-0.1-1.2-0.4-1.6c-0.3-0.4-0.6-0.8-1.1-1.1c-0.4-0.3-1-0.5-1.5-0.7c-0.6-0.2-1.1-0.4-1.7-0.6c-0.8-0.3-1.6-0.6-2.4-1
		c-0.8-0.3-1.4-0.7-2.1-1.2c-0.6-0.5-1.1-1.1-1.4-1.8c-0.4-0.7-0.5-1.6-0.5-2.6c0-1,0.2-1.8,0.6-2.6c0.4-0.7,0.9-1.4,1.6-1.9
		c0.6-0.5,1.4-0.9,2.2-1.2c0.8-0.3,1.7-0.4,2.6-0.4c0.6,0,1.3,0.1,1.9,0.3c0.6,0.2,1.2,0.5,1.8,0.8c0.6,0.3,1.1,0.7,1.5,1.1
		c0.4,0.4,0.8,0.8,1.1,1.1L58.4,33c-0.5,0.4-1,0.6-1.6,0.6c-0.5,0-1-0.1-1.4-0.4c-0.4-0.3-0.9-0.6-1.3-0.7c-0.4-0.2-0.8-0.3-1.2-0.3
		c-0.5,0-1,0.1-1.4,0.2c-0.5,0.1-0.8,0.3-1.2,0.6c-0.3,0.3-0.6,0.5-0.8,0.9c-0.2,0.3-0.3,0.7-0.3,1.1c0,0.5,0.1,0.9,0.2,1.2
		c0.2,0.3,0.4,0.6,0.7,0.9c0.3,0.3,0.8,0.5,1.3,0.7c0.5,0.2,1.2,0.5,2,0.7c0.4,0.2,0.8,0.3,1.1,0.4c0.4,0.1,0.8,0.3,1.1,0.4
		c0.4,0.2,0.7,0.3,1.1,0.5c0.4,0.2,0.7,0.4,1,0.7c1.6,1.2,2.5,2.9,2.5,5C60.3,46.7,60,47.6,59.6,48.5"/>
	<rect x="86.9" y="59.3" class="st0" width="220.2" height="1.6"/>
	<path class="st0" d="M93.6,77.3c-0.5,0.2-1.1,0.3-1.8,0.3c-1,0-1.9-0.2-2.6-0.7c-0.7-0.4-1.3-1-1.7-1.8c-0.4-0.7-0.6-1.6-0.6-2.4
		c0-1,0.2-1.8,0.6-2.6c0.4-0.8,1-1.4,1.7-1.8c0.7-0.4,1.5-0.6,2.5-0.6c0.6,0,1.1,0.1,1.6,0.2c0.5,0.2,0.9,0.4,1.3,0.6l-0.8,1.8
		c-0.7-0.5-1.4-0.8-2.1-0.8c-0.5,0-1,0.1-1.4,0.4c-0.4,0.3-0.8,0.6-1,1.1c-0.3,0.5-0.4,1-0.4,1.6c0,0.6,0.1,1.2,0.4,1.6
		c0.2,0.5,0.6,0.8,1,1.1c0.4,0.3,1,0.4,1.5,0.4c0.5,0,0.9-0.1,1.3-0.2c0.4-0.2,0.7-0.3,0.9-0.5l0.8,1.7
		C94.5,76.9,94.1,77.1,93.6,77.3"/>
	<path class="st0" d="M97.9,70.1c0.4-0.8,1-1.4,1.8-1.8c0.8-0.5,1.6-0.7,2.5-0.7c0.9,0,1.7,0.2,2.5,0.7c0.8,0.5,1.4,1.1,1.8,1.8
		c0.5,0.8,0.7,1.6,0.7,2.5c0,0.9-0.2,1.7-0.7,2.5c-0.5,0.8-1.1,1.4-1.8,1.8c-0.8,0.4-1.6,0.7-2.5,0.7c-0.9,0-1.7-0.2-2.5-0.7
		c-0.8-0.4-1.4-1-1.8-1.8c-0.4-0.8-0.7-1.6-0.7-2.5C97.2,71.7,97.5,70.9,97.9,70.1 M99.6,74.2c0.3,0.5,0.6,0.9,1.1,1.1
		c0.5,0.3,1,0.4,1.5,0.4c0.5,0,1-0.1,1.5-0.4c0.4-0.3,0.8-0.7,1.1-1.1c0.3-0.5,0.4-1,0.4-1.6c0-0.6-0.1-1.1-0.4-1.6
		c-0.3-0.5-0.6-0.9-1.1-1.1c-0.5-0.3-1-0.4-1.5-0.4c-0.6,0-1.1,0.1-1.5,0.4c-0.5,0.3-0.8,0.7-1.1,1.1c-0.3,0.5-0.4,1-0.4,1.6
		C99.2,73.2,99.3,73.7,99.6,74.2"/>
	<path class="st0" d="M125.7,69.4c-0.4,0-0.8,0.1-1,0.3c-0.2,0.2-0.3,0.4-0.3,0.8c0,0.3,0.2,0.6,0.5,0.8c0.3,0.2,0.8,0.5,1.4,0.7
		c0.5,0.2,0.8,0.4,1.2,0.6c0.3,0.2,0.6,0.5,0.8,0.9c0.2,0.4,0.3,0.9,0.3,1.4c0,0.5-0.1,1-0.4,1.4c-0.3,0.4-0.6,0.8-1.1,1
		c-0.5,0.3-1.1,0.4-1.8,0.4c-0.6,0-1.2-0.1-1.7-0.3c-0.6-0.2-1.1-0.4-1.6-0.8l0.8-1.5c0.3,0.2,0.7,0.4,1.1,0.6
		c0.4,0.2,0.8,0.2,1.2,0.2c0.4,0,0.8-0.1,1.1-0.3c0.3-0.2,0.4-0.5,0.4-0.8c0-0.5-0.5-0.9-1.4-1.3c-0.6-0.2-1-0.4-1.4-0.6
		c-0.4-0.2-0.7-0.5-1-0.9c-0.3-0.4-0.4-0.9-0.4-1.4c0-0.8,0.3-1.5,0.8-2c0.5-0.5,1.3-0.8,2.2-0.8c0.7,0,1.3,0.1,1.8,0.2
		c0.5,0.2,1,0.4,1.4,0.7l-0.7,1.5C127,69.6,126.3,69.4,125.7,69.4"/>
	<path class="st0" d="M133.5,74.7c0.2,0.3,0.4,0.5,0.7,0.7c0.3,0.2,0.6,0.3,1,0.3c0.4,0,0.7-0.1,1-0.3c0.3-0.2,0.6-0.4,0.7-0.7
		c0.2-0.3,0.3-0.6,0.3-0.9v-6.1h1.9v6.2c0,0.7-0.2,1.3-0.5,1.9c-0.4,0.6-0.8,1-1.4,1.3c-0.6,0.3-1.3,0.5-2,0.5c-0.7,0-1.4-0.2-2-0.5
		c-0.6-0.3-1.1-0.7-1.4-1.3c-0.3-0.6-0.5-1.2-0.5-1.9v-6.2h1.9v6.1C133.2,74.2,133.3,74.5,133.5,74.7"/>
	<polygon class="st0" points="144.6,67.7 144.6,75.6 149.2,75.6 149.2,77.5 142.7,77.5 142.7,67.7 	"/>
	<polygon class="st0" points="158.2,67.7 158.2,69.6 155.8,69.6 155.8,77.5 153.9,77.5 153.9,69.6 151.6,69.6 151.6,67.7 	"/>
	<path class="st0" d="M161.3,70.1c0.4-0.8,1-1.4,1.8-1.8c0.8-0.5,1.6-0.7,2.5-0.7c0.9,0,1.7,0.2,2.5,0.7c0.8,0.5,1.4,1.1,1.8,1.8
		c0.5,0.8,0.7,1.6,0.7,2.5c0,0.9-0.2,1.7-0.7,2.5c-0.5,0.8-1.1,1.4-1.8,1.8c-0.8,0.4-1.6,0.7-2.5,0.7c-0.9,0-1.7-0.2-2.5-0.7
		c-0.8-0.4-1.4-1-1.8-1.8c-0.4-0.8-0.7-1.6-0.7-2.5C160.6,71.7,160.8,70.9,161.3,70.1 M163,74.2c0.3,0.5,0.6,0.9,1.1,1.1
		c0.5,0.3,1,0.4,1.5,0.4c0.5,0,1-0.1,1.5-0.4c0.4-0.3,0.8-0.7,1.1-1.1c0.3-0.5,0.4-1,0.4-1.6c0-0.6-0.1-1.1-0.4-1.6
		c-0.3-0.5-0.6-0.9-1.1-1.1c-0.5-0.3-1-0.4-1.5-0.4c-0.6,0-1.1,0.1-1.5,0.4c-0.5,0.3-0.8,0.7-1.1,1.1c-0.3,0.5-0.4,1-0.4,1.6
		C162.6,73.2,162.7,73.7,163,74.2"/>
	<path class="st0" d="M178.9,77.5l-2-3.1h-1.3v3.1h-1.9v-9.7h2.9c1.2,0,2.1,0.3,2.8,0.9c0.7,0.6,1,1.4,1,2.4c0,0.6-0.1,1.2-0.4,1.7
		c-0.3,0.5-0.6,0.9-1.2,1.2l2.3,3.5H178.9z M175.5,72.5h1.4c0.5,0,0.9-0.2,1.1-0.5c0.2-0.3,0.4-0.6,0.4-1c0-0.4-0.1-0.7-0.3-1
		c-0.2-0.3-0.6-0.5-1.2-0.5h-1.4V72.5z"/>
	<polygon class="st0" points="190.4,67.7 190.4,69.6 185.7,69.6 185.7,71.7 189.9,71.7 189.9,73.5 185.7,73.5 185.7,75.6 
		190.6,75.6 190.6,77.5 183.8,77.5 183.8,67.7 	"/>
	<path class="st0" d="M196.7,69.4c-0.4,0-0.8,0.1-1,0.3c-0.2,0.2-0.3,0.4-0.3,0.8c0,0.3,0.2,0.6,0.5,0.8c0.3,0.2,0.8,0.5,1.4,0.7
		c0.5,0.2,0.8,0.4,1.2,0.6c0.3,0.2,0.6,0.5,0.8,0.9c0.2,0.4,0.3,0.9,0.3,1.4c0,0.5-0.1,1-0.4,1.4c-0.3,0.4-0.6,0.8-1.1,1
		c-0.5,0.3-1.1,0.4-1.8,0.4c-0.6,0-1.2-0.1-1.7-0.3c-0.6-0.2-1.1-0.4-1.6-0.8l0.8-1.5c0.3,0.2,0.7,0.4,1.1,0.6
		c0.4,0.2,0.8,0.2,1.2,0.2c0.4,0,0.8-0.1,1.1-0.3c0.3-0.2,0.4-0.5,0.4-0.8c0-0.5-0.5-0.9-1.4-1.3c-0.6-0.2-1-0.4-1.4-0.6
		c-0.4-0.2-0.7-0.5-1-0.9c-0.3-0.4-0.4-0.9-0.4-1.4c0-0.8,0.3-1.5,0.8-2c0.5-0.5,1.3-0.8,2.2-0.8c0.7,0,1.3,0.1,1.8,0.2
		c0.5,0.2,1,0.4,1.4,0.7l-0.7,1.5C198.1,69.6,197.4,69.4,196.7,69.4"/>
	<polygon class="st0" points="214,67.7 214,69.6 211.6,69.6 211.6,77.5 209.7,77.5 209.7,69.6 207.4,69.6 207.4,67.7 	"/>
	<path class="st0" d="M222.2,77.5l-2-3.1h-1.3v3.1H217v-9.7h2.9c1.2,0,2.1,0.3,2.8,0.9c0.7,0.6,1,1.4,1,2.4c0,0.6-0.1,1.2-0.4,1.7
		c-0.3,0.5-0.6,0.9-1.2,1.2l2.3,3.5H222.2z M218.9,72.5h1.4c0.5,0,0.9-0.2,1.1-0.5c0.2-0.3,0.4-0.6,0.4-1c0-0.4-0.1-0.7-0.3-1
		c-0.2-0.3-0.6-0.5-1.2-0.5h-1.4V72.5z"/>
	<rect x="227.2" y="67.7" class="st0" width="1.9" height="9.7"/>
	<path class="st0" d="M239,73.3c0.3,0.4,0.4,0.8,0.4,1.3c0,1-0.3,1.7-1,2.2c-0.6,0.5-1.5,0.7-2.4,0.7h-3.2v-9.7h2.9
		c1,0,1.8,0.2,2.4,0.6c0.6,0.4,0.9,1,0.9,1.8c0,0.5-0.1,0.9-0.3,1.3c-0.2,0.4-0.5,0.7-0.9,0.9C238.3,72.6,238.7,72.9,239,73.3
		 M234.7,71.7h1.2c0.4,0,0.6-0.1,0.8-0.3c0.2-0.2,0.3-0.5,0.3-0.8c0-0.3-0.1-0.6-0.3-0.7c-0.2-0.2-0.5-0.3-0.9-0.3h-1V71.7z
		 M237,75.4c0.3-0.2,0.4-0.5,0.4-0.8c0-0.7-0.5-1-1.6-1h-1.1v2.1h1.2C236.4,75.7,236.7,75.6,237,75.4"/>
	<path class="st0" d="M244.5,74.7c0.2,0.3,0.4,0.5,0.7,0.7c0.3,0.2,0.6,0.3,1,0.3c0.4,0,0.7-0.1,1-0.3c0.3-0.2,0.6-0.4,0.7-0.7
		c0.2-0.3,0.3-0.6,0.3-0.9v-6.1h1.9v6.2c0,0.7-0.2,1.3-0.5,1.9c-0.4,0.6-0.8,1-1.4,1.3c-0.6,0.3-1.3,0.5-2,0.5s-1.4-0.2-2-0.5
		c-0.6-0.3-1.1-0.7-1.4-1.3c-0.3-0.6-0.5-1.2-0.5-1.9v-6.2h1.9v6.1C244.2,74.2,244.3,74.5,244.5,74.7"/>
	<polygon class="st0" points="259.5,67.7 259.5,69.6 257.1,69.6 257.1,77.5 255.2,77.5 255.2,69.6 253,69.6 253,67.7 	"/>
	<path class="st0" d="M267.3,75.6h-3.2l-0.8,1.9h-1.9l4.4-10.1h0.1l4.4,10.1h-2.2L267.3,75.6z M266.7,73.9l-0.9-2.4l-1,2.4H266.7z"
		/>
	<path class="st0" d="M278.1,77.5l-2-3.1h-1.3v3.1h-1.9v-9.7h2.9c1.2,0,2.1,0.3,2.8,0.9c0.7,0.6,1,1.4,1,2.4c0,0.6-0.1,1.2-0.4,1.7
		c-0.3,0.5-0.6,0.9-1.2,1.2l2.3,3.5H278.1z M274.8,72.5h1.4c0.5,0,0.9-0.2,1.1-0.5c0.2-0.3,0.4-0.6,0.4-1c0-0.4-0.1-0.7-0.3-1
		c-0.2-0.3-0.6-0.5-1.2-0.5h-1.4V72.5z"/>
	<rect x="283.1" y="67.7" class="st0" width="1.9" height="9.7"/>
	<path class="st0" d="M288.7,70.1c0.4-0.8,1-1.4,1.8-1.8c0.8-0.5,1.6-0.7,2.5-0.7s1.7,0.2,2.5,0.7c0.8,0.5,1.4,1.1,1.8,1.8
		c0.5,0.8,0.7,1.6,0.7,2.5c0,0.9-0.2,1.7-0.7,2.5c-0.5,0.8-1.1,1.4-1.8,1.8c-0.8,0.4-1.6,0.7-2.5,0.7c-0.9,0-1.7-0.2-2.5-0.7
		c-0.8-0.4-1.4-1-1.8-1.8c-0.4-0.8-0.7-1.6-0.7-2.5C288,71.7,288.3,70.9,288.7,70.1 M290.4,74.2c0.3,0.5,0.6,0.9,1.1,1.1
		c0.5,0.3,1,0.4,1.5,0.4c0.5,0,1-0.1,1.5-0.4c0.4-0.3,0.8-0.7,1.1-1.1c0.3-0.5,0.4-1,0.4-1.6c0-0.6-0.1-1.1-0.4-1.6
		c-0.3-0.5-0.6-0.9-1.1-1.1c-0.5-0.3-1-0.4-1.5-0.4c-0.6,0-1.1,0.1-1.5,0.4c-0.5,0.3-0.8,0.7-1.1,1.1c-0.3,0.5-0.4,1-0.4,1.6
		C290,73.2,290.2,73.7,290.4,74.2"/>
	<path class="st0" d="M304,69.4c-0.4,0-0.8,0.1-1,0.3c-0.2,0.2-0.3,0.4-0.3,0.8c0,0.3,0.2,0.6,0.5,0.8c0.3,0.2,0.8,0.5,1.4,0.7
		c0.5,0.2,0.8,0.4,1.2,0.6c0.3,0.2,0.6,0.5,0.8,0.9c0.2,0.4,0.3,0.9,0.3,1.4c0,0.5-0.1,1-0.4,1.4c-0.3,0.4-0.6,0.8-1.1,1
		c-0.5,0.3-1.1,0.4-1.8,0.4c-0.6,0-1.2-0.1-1.7-0.3c-0.6-0.2-1.1-0.4-1.6-0.8l0.8-1.5c0.3,0.2,0.7,0.4,1.1,0.6
		c0.4,0.2,0.8,0.2,1.2,0.2c0.4,0,0.8-0.1,1.1-0.3c0.3-0.2,0.4-0.5,0.4-0.8c0-0.5-0.5-0.9-1.4-1.3c-0.6-0.2-1-0.4-1.4-0.6
		c-0.4-0.2-0.7-0.5-1-0.9c-0.3-0.4-0.4-0.9-0.4-1.4c0-0.8,0.3-1.5,0.8-2c0.5-0.5,1.3-0.8,2.2-0.8c0.7,0,1.3,0.1,1.8,0.2
		c0.5,0.2,1,0.4,1.4,0.7l-0.7,1.5C305.4,69.6,304.7,69.4,304,69.4"/>
	<polygon class="st0" points="119,67.7 119,77.5 118.9,77.5 112.1,71.8 112.2,77.5 110.2,77.5 110.2,67.7 110.3,67.7 117.1,73.5 
		117.1,67.7 	"/>
</g>
</svg>
