<?xml version="1.0" encoding="utf-8"?>
<!-- Generator: Adobe Illustrator 26.3.1, SVG Export Plug-In . SVG Version: 6.00 Build 0)  -->
<svg version="1.1" id="Capa_1" xmlns="http://www.w3.org/2000/svg" xmlns:xlink="http://www.w3.org/1999/xlink" x="0px" y="0px"
	 viewBox="0 0 83.7 83.7" style="enable-background:new 0 0 83.7 83.7;" xml:space="preserve">
<style type="text/css">
	.st0{fill:#FFFFFF;}
</style>
<g>
	<path class="st0" d="M0,69.6c0.5-1.6,1.1-3.1,2.5-4.1c0.3-0.2,0.6-0.4,0.9-0.6c-2.6-3.3-2.9-6.6,0-9.9c2.1-2.4,4.9-2.6,9.1-0.8
		V34.5c-0.2,0.5-0.3,0.8-0.4,1.1c-0.4,1.2-0.7,2.5-1.2,3.6c-0.9,2.2-3.4,3.2-5.6,2.4c-2.2-0.8-3.4-3.1-2.7-5.3
		c1.2-4.3,2.5-8.7,3.8-13c1-3.4,4.5-6.1,8-6.4c0.3,0,0.5-0.1,0.9-0.1c-1.3-1.8-1.7-3.7-1.2-5.8C14.6,9.3,15.5,8,16.8,7
		c2.2-1.7,5.7-1.8,8-0.2c2.2,1.5,4,4.5,2.5,8.6c0.3-0.1,0.6-0.3,0.8-0.4c3.4-1.7,6.7-3.5,10.1-5.2c2-1,4.4-0.5,5.7,1.3
		c1.3,1.7,1.2,4.1-0.3,5.7c-0.4,0.4-0.9,0.8-1.4,1.1c-4.1,2.1-8.2,4.3-12.3,6.4c-0.5,0.2-0.7,0.5-0.7,1c0,9,0,18,0,27
		c0,0.2,0,0.5,0,0.7c3.2-0.4,5.7,0.6,7.3,3.4c1.6,2.7,1.3,5-1,8.5c0.5,0.4,1,0.7,1.4,1.1c1.3,1.2,2,2.8,2,4.6c0,3.8,0,7.6,0,11.4
		c0,1.1-0.5,1.7-1.7,1.7c-4.5,0-8.9,0-13.4,0c-1.1,0-1.7-0.5-1.7-1.6c0-3.8,0-7.7,0-11.5c0-1.8,0.7-3.3,2-4.6
		c0.1-0.1,0.1-0.2,0.2-0.2c0,0,0,0,0-0.1H14.4c0.2,0.2,0.2,0.3,0.3,0.4c1.4,1.3,2,2.9,2,4.8c0,3.7,0,7.4,0,11.1
		c0,1.3-0.5,1.8-1.8,1.8c-4.3,0-8.7,0-13,0c-0.9,0-1.5-0.3-1.9-1V69.6z M24.3,62.7c-0.1-0.3-0.1-0.5-0.2-0.7
		c-0.8-2.8-0.2-5.2,1.9-7.2c0.4-0.4,0.6-0.7,0.6-1.3c0-9.7,0-19.5,0-29.2c0-1.1,0.3-1.7,1.3-2.2c4.2-2.1,8.4-4.3,12.5-6.5
		c0.4-0.2,0.7-0.4,1.1-0.6c0.6-0.5,0.8-1.2,0.6-1.9c-0.3-0.7-0.8-1.2-1.6-1.1c-0.4,0-0.8,0.2-1.2,0.4c-4.2,2.2-8.3,4.3-12.5,6.5
		c-0.6,0.3-1.4,0.5-2.2,0.5c-2.9,0.1-5.7,0-8.6,0c-3.6,0-6,1.8-7,5.3c-0.7,2.3-1.4,4.7-2.1,7c-0.5,1.7-1,3.3-1.4,5
		c-0.2,0.9,0.2,1.8,1,2c0.8,0.3,1.7-0.1,2.1-1c0.1-0.2,0.2-0.4,0.2-0.6c0.6-1.9,1.2-3.9,1.8-5.8c0.7-2.2,1.4-4.5,2.1-6.7
		c0.3-0.8,0.8-1.2,1.5-1.1c0.7,0.1,1.2,0.6,1.3,1.5c0,0.2,0,0.5,0,0.7c0,8.6,0,17.2,0,25.7c0,3.7,0.5,7.4-0.5,11h4.7V39.1h2.8v23.6
		H24.3z M13.9,80.8c0-3.6,0.1-7.2,0-10.8c0-1.6-1.5-2.9-3.1-3c-1.3-0.1-2.6-0.1-3.8-0.1c-2.6,0-4.1,1.5-4.1,4.1c0,2.9,0,5.8,0,8.7
		v1.1H13.9z M25.2,80.8h11.1c0-3.5,0.1-6.9,0-10.3c0-2-1.5-3.4-3.6-3.5c-1.2,0-2.3,0-3.5,0c-2.6,0-4,1.5-4,4.1c0,3,0,6,0,9.1
		C25.1,80.3,25.1,80.5,25.2,80.8 M4.2,59.9c0,2.3,1.8,4.2,4.1,4.2c2.3,0,4.2-1.9,4.2-4.2c0-2.3-1.9-4.2-4.2-4.2
		C6.1,55.7,4.2,57.6,4.2,59.9 M34.8,59.9c0-2.3-1.8-4.2-4.1-4.2c-2.3,0-4.2,1.9-4.2,4.2c0,2.3,1.9,4.2,4.2,4.2
		C33,64.1,34.8,62.2,34.8,59.9 M20.8,16.7c2.3,0.1,4.2-1.8,4.3-4.1c0-2.3-1.8-4.2-4.1-4.2c-2.2-0.1-4.2,1.8-4.3,4.1
		C16.7,14.7,18.5,16.6,20.8,16.7"/>
	<path class="st0" d="M82.7,0c0.8,0.4,1,1.1,1,2c0,10.8,0,21.5,0,32.3c0,1.6-0.4,2-2,2c-16.3,0-32.5,0-48.8,0h-0.8v-2.8h48.7V2.8
		h-78v26.4H0V0H82.7z"/>
	<path class="st0" d="M48.1,64.9c-3.1-3.5-2.3-7.7,0.1-10c2.5-2.4,6.5-2.6,9.1-0.5c1.6,1.3,2.6,3,2.7,5.1c0.1,2.1-0.6,3.8-2,5.4
		c0.1,0.1,0.2,0.2,0.3,0.2c2.1,1.3,3.2,3.3,3.2,5.8c0,3.6,0,7.3,0,10.9c0,1.4-0.5,1.8-1.9,1.8c-4.3,0-8.7,0-13,0
		c-1.4,0-1.9-0.5-1.9-1.9c0-3.3,0.1-6.6,0-9.9C44.5,68.9,45.3,66.5,48.1,64.9 M47.4,80.8h11.1c0-3.7,0.1-7.3,0-10.9
		c0-1.5-1.5-2.9-3.1-3c-1.5-0.1-2.9-0.1-4.4,0c-2,0.1-3.5,1.5-3.5,3.5C47.4,73.9,47.4,77.3,47.4,80.8 M53,64.1
		c2.3,0,4.2-1.9,4.2-4.2c0-2.3-1.9-4.2-4.2-4.2c-2.3,0-4.2,1.9-4.2,4.2C48.9,62.2,50.7,64.1,53,64.1"/>
	<path class="st0" d="M80.2,64.9c2.6,1.5,3.5,3.8,3.5,6.6c-0.1,3.4,0,6.9,0,10.3c0,1.4-0.5,1.9-1.9,1.9c-4.3,0-8.7,0-13,0
		c-1.4,0-1.9-0.5-1.9-1.9c0-3.3,0.1-6.6,0-10c-0.1-2.9,0.7-5.4,3.5-6.9c-1.7-1.9-2.4-4.1-1.9-6.6c0.4-1.7,1.4-3.1,2.8-4.2
		c2.6-1.9,6.4-1.6,8.8,0.8C82.3,57.1,83.5,61.2,80.2,64.9 M69.7,80.8h11.1c0-3.5,0.1-7,0-10.4c0-1.9-1.5-3.3-3.5-3.4
		c-1.2-0.1-2.4,0-3.7,0c-2.5,0-3.9,1.5-4,4c0,1.9,0,3.8,0,5.6C69.7,78,69.7,79.4,69.7,80.8 M75.3,64.1c2.3,0,4.1-1.9,4.1-4.2
		c0-2.3-1.9-4.2-4.1-4.2c-2.3,0-4.2,1.9-4.2,4.2C71.2,62.2,73,64.1,75.3,64.1"/>
	<rect x="50.2" y="15.4" class="st0" width="27.8" height="2.7"/>
	<rect x="44.7" y="23.8" class="st0" width="27.8" height="2.7"/>
	<rect x="46.1" y="7" class="st0" width="27.8" height="2.7"/>
</g>
</svg>
