<?xml version="1.0" encoding="utf-8"?>
<!-- Generator: Adobe Illustrator 26.3.1, SVG Export Plug-In . SVG Version: 6.00 Build 0)  -->
<svg version="1.1" id="Capa_1" xmlns="http://www.w3.org/2000/svg" xmlns:xlink="http://www.w3.org/1999/xlink" x="0px" y="0px"
	 viewBox="0 0 83.7 83.7" style="enable-background:new 0 0 83.7 83.7;" xml:space="preserve">
<style type="text/css">
	.st0{fill:#FFFFFF;}
</style>
<path class="st0" d="M25.2,56.2c3.1,0,6.2,0,9.3,0c1.2,0,1.9-0.6,1.9-1.6c0-0.9-0.7-1.6-1.9-1.6c-1.5,0-3,0-4.5,0
	c-1.6,0-3.1,0-4.7,0c-1.2,0-1.9,0.6-1.9,1.6C23.3,55.6,24.1,56.2,25.2,56.2 M25.2,65.2c1.5,0,3.1,0,4.6,0c1.5,0,3.1,0,4.6,0
	c1.2,0,1.9-0.7,1.9-1.6c0-0.9-0.8-1.6-1.9-1.6c-3.1,0-6.2,0-9.3,0c-1.2,0-1.9,0.6-1.9,1.6C23.3,64.5,24.1,65.1,25.2,65.2 M67,69.2
	c-0.9,0-1.6,0.8-1.6,1.9c0,2.1,0,4.1,0,6.2c0,1.7-0.5,2.2-2.2,2.2c-19,0-37.9,0-56.9,0c-1.7,0-2.2-0.5-2.2-2.2c0-23.7,0-47.3,0-71
	c0-1.7,0.5-2.2,2.2-2.2c18.9,0,37.9,0,56.8,0c1.7,0,2.2,0.5,2.2,2.2c0,4.4,0,8.8,0,13.2c0,1.2,0.6,1.9,1.6,1.9c1,0,1.6-0.7,1.6-1.9
	c0-4.5,0-9.1,0-13.6c0-2.9-2.1-4.9-5-4.9c-0.2,0-0.3,0-0.5,0C44.3,1,25.3,1,6.4,1C4.9,1,3.5,1.2,2.5,2.3C1.9,3.1,1.5,4.1,1,5v73.8
	c0.5,1.5,1.2,2.8,2.7,3.5c0.5,0.2,1,0.4,1.5,0.5h59.4c0.1,0,0.2-0.1,0.3-0.1c2.4-0.7,3.8-2.3,3.8-4.8c0-2.2,0-4.5,0-6.7
	C68.7,69.9,68,69.2,67,69.2 M14.3,54c1.3-0.2,2,0.3,2.4,1.7c0.2,1,0.9,1.4,1.8,1.3c0.8-0.1,1.4-0.8,1.4-1.8c-0.2-1.8-1.1-3.1-2.8-4
	c-0.3-0.2-0.6-0.5-0.8-0.8c-0.3-0.6-0.8-1-1.4-1c-0.7,0-1.2,0.3-1.5,1c-0.1,0.3-0.4,0.6-0.7,0.7c-1.9,0.9-3.1,2.7-2.9,4.6
	c0.2,2,1.6,3.7,3.6,4.3c0.6,0.2,1.3,0.2,2,0.3c0.8,0.1,1.4,0.8,1.4,1.4c0,0.8-0.4,1.2-1.1,1.5c-1.2,0.5-2.4-0.2-2.7-1.4
	c-0.1-0.7-0.4-1.3-1.1-1.5c-1.1-0.3-2.1,0.5-2,1.7c0.1,1.9,1.2,3.2,2.9,4.1c0.3,0.1,0.5,0.5,0.7,0.8c0.3,0.7,0.7,1.1,1.5,1.1
	c0.8,0,1.3-0.4,1.6-1.1c0.1-0.3,0.4-0.6,0.7-0.7c1.9-0.9,3-2.7,2.9-4.6c-0.2-2-1.5-3.7-3.6-4.3c-0.6-0.2-1.3-0.2-2-0.3
	c-0.8-0.1-1.4-0.8-1.4-1.5C12.8,54.8,13.5,54.1,14.3,54 M65.5,26.2c0,0.8,0.7,1.6,1.6,1.6c0.8,0,1.6-0.7,1.6-1.6
	c0-0.8-0.8-1.6-1.6-1.6C66.2,24.6,65.5,25.4,65.5,26.2 M57,42.2c-0.1-2.6-2.2-4.7-4.8-4.7c-2.6,0-4.7,2.1-4.7,4.8
	c0,2.6,2.1,4.8,4.8,4.8C54.8,47,57,44.8,57,42.2 M50.6,42.1c0.1-0.9,0.8-1.5,1.7-1.4c0.9,0.1,1.5,0.8,1.5,1.7
	c-0.1,0.9-0.8,1.5-1.7,1.5C51.2,43.8,50.6,43,50.6,42.1 M63.4,49.8c-2.6,0-4.8,2.1-4.8,4.7c0,2.7,2.1,4.8,4.8,4.8
	c2.6,0,4.8-2.2,4.8-4.8C68.1,52,66,49.8,63.4,49.8 M63.4,56.1c-0.9,0-1.6-0.7-1.6-1.6c0-0.9,0.7-1.6,1.6-1.6c0.9,0,1.6,0.7,1.6,1.6
	C64.9,55.4,64.2,56.1,63.4,56.1 M81.1,65c-2.5-2.5-5-5-7.5-7.4c-0.4-0.4-0.5-0.7-0.2-1.3c2-4.1,2.5-8.4,1.1-12.8
	c-2.2-6.8-6.8-10.9-13.8-12.3c-1.1-0.2-2.1-0.3-3.2-0.4c0-2.8,0-5.5,0-8.2c0-1.5-0.6-2.1-2.1-2.1c-2.6,0-5.3,0-7.9,0
	c-0.3,0-0.6,0-0.9,0v-0.9c0-2.4,0-4.8,0-7.2c0-1.5-0.6-2-2-2c-3.3,0-6.7,0-10,0c-1.5,0-2.1,0.6-2.1,2.1c0,2.7,0,5.4,0,8.1v0.9
	c-2.9,0-5.7,0-8.5,0c-2,0-2.4,0.4-2.4,2.4c0,2.3,0,4.6,0,6.9v0.9c-2.5,0-5,0-7.4,0c-1.4,0-2,0.6-2,2c0,2.5,0,5.1,0,7.6
	c0,1.7,0.5,2.2,2.2,2.2c8.5,0,17,0,25.5,0h1.1c-0.7,2.5-0.9,5-0.5,7.4c1,5.9,4.1,10.4,9.5,13.1c5.2,2.6,10.5,2.6,15.7,0
	c0.5-0.3,0.9-0.2,1.3,0.2c1.5,1.6,3.1,3.2,4.7,4.7c1.1,1.1,2.2,2.3,3.4,3.3c1.9,1.6,4.8,1.3,6.5-0.5C83.3,69.8,83.1,67,81.1,65
	 M21.5,40.2h-6.1v-5.4h6.1V40.2z M32.4,40.2h-7.6V24.7h7.6V40.2z M40.7,40.3c-1.6-0.1-3.3,0-5,0V13.5h7.7v1c0,4.9,0,9.9,0,14.8
	c0,0.4,0,0.7,0.1,1.1c0.1,0.7,0.8,1.2,1.5,1.2c0.7,0,1.4-0.5,1.5-1.3c0.1-0.4,0.1-0.8,0.1-1.2c0-1.8,0-3.6,0-5.5h7.7
	c0,0.3,0,0.5,0,0.8c0,2,0,3.9,0,5.9c0,0.6-0.1,0.9-0.8,1c-4.2,1-7.6,3.4-10.1,6.9c-0.1,0.2-0.3,0.4-0.4,0.6
	C42.6,40.1,41.9,40.4,40.7,40.3 M57.7,62.8c-7.9,0-14.3-6.5-14.3-14.4c0-7.9,6.4-14.3,14.3-14.3c7.9,0,14.4,6.5,14.4,14.4
	C72.1,56.3,65.6,62.8,57.7,62.8 M79,69.7c-0.7,0.6-1.6,0.5-2.4-0.2c-2-2-4.1-4.1-6.1-6.1c-0.5-0.5-1-0.9-1.5-1.4
	c0.8-0.8,1.5-1.5,2.3-2.3c2.5,2.5,5.1,5.1,7.6,7.6C79.7,68.1,79.7,69.1,79,69.7 M42.2,63.5c0-0.9-0.7-1.6-1.6-1.6
	c-0.9,0-1.5,0.7-1.5,1.6c0,0.9,0.7,1.6,1.6,1.6C41.5,65.1,42.2,64.4,42.2,63.5 M9.6,72.5c0,1,0.8,1.6,2.3,1.6c14.3,0,28.6,0,42.8,0
	c0.4,0,0.7,0,1.1-0.1c0.7-0.2,1.2-0.8,1.2-1.5c0-0.7-0.5-1.3-1.2-1.5c-0.3-0.1-0.7-0.1-1-0.1c-7.1,0-14.3,0-21.4,0
	c-7.2,0-14.3,0-21.5,0C10.4,70.9,9.6,71.5,9.6,72.5 M62.6,42.1c0.3-1-0.4-2-1.5-2c-0.8,0-1.2,0.5-1.6,1.1c-2.7,4.8-5.5,9.7-8.2,14.5
	c-0.1,0.2-0.2,0.5-0.3,0.7c-0.2,0.7,0.1,1.4,0.7,1.8c0.7,0.4,1.3,0.3,1.8-0.2c0.2-0.2,0.4-0.5,0.6-0.8c2.7-4.8,5.4-9.6,8.1-14.3
	C62.4,42.6,62.5,42.4,62.6,42.1"/>
</svg>
