<?xml version="1.0" encoding="utf-8"?>
<!-- Generator: Adobe Illustrator 26.3.1, SVG Export Plug-In . SVG Version: 6.00 Build 0)  -->
<svg version="1.1" id="Capa_1" xmlns="http://www.w3.org/2000/svg" xmlns:xlink="http://www.w3.org/1999/xlink" x="0px" y="0px"
	 viewBox="0 0 83.7 83.7" style="enable-background:new 0 0 83.7 83.7;" xml:space="preserve">
<style type="text/css">
	.st0{fill:#FFFFFF;}
</style>
<g>
	<path class="st0" d="M-0.2,81.1c0.8,0,1.5,0.1,2.3,0.1c3.3,0,6.5,0,9.8,0V59.5H9.3v-8.1h5.4c0-1.6,0-3,0-4.5c0-3.2,1.4-5.1,4.5-6
		c1.4-0.4,2.9-0.8,4.3-1.2c0.5-0.1,0.6-0.3,0.7-0.8c0.1-1.1-0.1-2-0.9-2.8c-1-1-1.6-2.4-1.7-3.8c-0.2-2.2-0.4-4.4,0.4-6.5
		c1-3,3.2-4.8,6.2-5.4c3-0.6,5.6,0.4,7.6,2.7c1.4,1.5,2,3.4,2,5.4c0,1.2,0.1,2.4-0.1,3.6c-0.2,1.8-1,3.3-2.2,4.6
		c-0.3,0.3-0.6,2.4-0.3,2.7c0.1,0.1,0.4,0.2,0.6,0.3c1.4,0.4,2.8,0.8,4.3,1.2c2.6,0.7,4.2,2.3,4.6,5.1h2.1c1.6,0,3.2,0,4.8,0
		c0.3,0,0.7-0.1,0.9-0.3c2.3-2.3,4.6-4.6,6.9-6.8c0,0,0-0.1,0-0.1c-0.9-0.6-1.8-1.1-2.5-1.8c-1.6-1.3-2.4-3.1-2.6-5.1
		c-0.2-2-0.3-4.1,0.4-6.1c1-3,3.2-4.8,6.3-5.4c3-0.6,5.6,0.4,7.6,2.7c1.3,1.5,2,3.2,2,5.2c0,1.3,0.1,2.7-0.1,4
		C70,34,69.1,35.6,67.7,37c2.5,1.4,2.8,3.7,2.6,6.2h5.4c0,0.3,0.1,0.6,0.1,0.9c0,5.4,0,10.9,0,16.4c0,4.4-2,7.5-6,9.2
		c-0.6,0.3-1.2,0.4-2,0.6c0.1,1.4,0.3,2.9,0.4,4.4c0.2,1.9,0.4,3.9,0.6,5.8c0,0.7,0.3,0.8,0.9,0.8c4.4,0,8.8,0,13.2,0h1v2.7H-0.2
		V81.1z M14.8,81.2c0.9,0,1.7,0,2.5,0c0.5,0,0.8-0.1,1-0.6c0.7-1.4,1.4-2.8,2.1-4.3c0.2-0.4,0.5-0.6,0.9-0.6c7.4,0,14.7,0,22.1,0
		c0.5,0,0.7,0.2,0.9,0.6c0.7,1.4,1.4,2.8,2.1,4.3c0.1,0.2,0.4,0.5,0.6,0.6c0.9,0.1,1.9,0,2.9,0V64.9H21.5v-2.7h28.4v-2.7H14.8v2.7h4
		v2.7h-4V81.2z M41.7,45.9c-0.1-1.1-0.7-1.9-1.9-2.2c-1.6-0.5-3.3-1-5-1.4c-0.3-0.1-0.6,0.1-0.9,0.3c-0.7,0.5-1.4,1.2-2.2,1.6
		c-2.1,1-4.5,0.4-6.3-1.5c-0.2-0.2-0.7-0.5-0.9-0.4c-1.7,0.4-3.4,0.9-5.1,1.5c-0.9,0.3-1.8,0.9-1.8,1.9c-0.1,1.9,0,3.8,0,5.7h19
		C36.2,47.6,37.4,46.3,41.7,45.9 M67.6,41.8c-0.6,0.8-1.2,1.7-2,2.5c-2.2,2.3-4.3,4.6-6.7,6.7c-1.7,1.5-2.6,3.1-2.2,5.4
		c0.1,1,0,2,0,3.1h-4v2.7c3.8,0,7.6,0.1,11.4,0c2.1-0.1,3.5-1.9,3.5-4C67.7,52.6,67.6,47.1,67.6,41.8 M56.8,29.6c0,0.5,0,1.1,0,1.7
		c0.2,2.6,2.2,4.7,4.9,5c2.4,0.3,5-1.3,5.6-3.8c0.4-1.6,0.4-3.4,0.2-5c-0.2-2.3-1.9-4-4.1-4.6c-2.1-0.5-4.3,0.3-5.6,2.1
		C56.8,26.5,56.7,28,56.8,29.6 M24.3,29.7c0,0.5,0,1,0,1.6c0.2,2.6,2.2,4.7,4.9,5c2.4,0.3,5.1-1.3,5.6-3.7c0.4-1.6,0.4-3.4,0.2-5.1
		c-0.2-2.2-1.6-3.7-3.7-4.4c-2.2-0.7-4-0.1-5.6,1.5C24.3,26.1,24.1,27.8,24.3,29.7 M12,56.7h42v-2.6H12V56.7z M52.7,67.6
		c0.1,0,0.2,0.1,0.3,0.1c4.4,0,8.8,0,13.2,0c1,0,2-0.3,2.9-0.7c2.7-1.3,3.9-3.5,3.9-6.4c0-4.6,0-9.1,0-13.7c0-0.3,0-0.5,0-0.8h-2.7
		c0,0.4,0,0.7,0,1c0,3.9,0.1,7.8-0.1,11.7c-0.1,3.3-2.9,6.1-6.2,6.2c-3.4,0.1-6.9,0.1-10.3,0.1c-0.3,0-0.6,0-1,0V67.6z M47.6,51.3
		c2.2,0,4.4,0,6.6,0c0.4,0,0.9-0.2,1.2-0.5c2.9-2.9,5.9-5.8,8.8-8.8c0.2-0.2,0.3-0.3,0.4-0.5c0.5-0.7,0.4-1.5-0.1-2
		c-0.5-0.5-1.3-0.6-2-0.1c-0.2,0.2-0.5,0.4-0.7,0.6c-2.7,2.7-5.3,5.3-8,8c-0.4,0.4-0.8,0.5-1.3,0.5c-3.8,0-7.6,0-11.4,0
		c-0.4,0-0.8,0-1,0.1c-0.4,0.3-0.9,0.8-0.9,1.2c0,0.4,0.5,0.9,0.8,1.2c0.2,0.2,0.7,0.1,1,0.1C43.3,51.3,45.4,51.3,47.6,51.3
		 M60.7,81.1c-0.4-3.7-0.7-7.2-1.1-10.8h-6.9v10.8H60.7z M21,81.1h22.7c-0.4-0.8-0.7-1.5-1.1-2.2c-0.1-0.2-0.4-0.4-0.7-0.4
		c-6.4,0-12.7,0-19.1,0c-0.2,0-0.5,0.2-0.6,0.3C21.8,79.5,21.4,80.3,21,81.1 M62.5,70.3c0,0.1-0.1,0.2-0.1,0.2
		c0.3,3.4,0.7,6.8,1,10.1c0,0.2,0.2,0.4,0.4,0.4c0.8,0,1.6,0,2.4,0c-0.4-3.7-0.7-7.2-1.1-10.8H62.5z M27,38.7
		c-0.2,1.4,0,1.9,1.1,2.7c1.1,0.7,2,0.7,3.1-0.1c0.9-0.6,1.3-1.4,1-2.6C30.5,39.2,28.7,39.2,27,38.7"/>
	<path class="st0" d="M64.9-0.2v13.5h-1c-3.7,0-7.5,0-11.2,0c-0.5,0-1,0.2-1.4,0.5c-2.8,2.3-5.6,4.6-8.3,6.9c-0.3,0.2-0.6,0.5-1,0.8
		v-8.3h-9.5V-0.2H64.9z M35.1,2.5v8.1h9.5v5.2c2-1.7,3.9-3.3,5.8-4.8c0.3-0.2,0.7-0.4,1.1-0.4c3.3,0,6.5,0,9.8,0h0.9V2.5H35.1z"/>
	<rect x="43.2" y="5.2" class="st0" width="10.7" height="2.6"/>
	<rect x="56.8" y="5.2" class="st0" width="2.6" height="2.6"/>
</g>
</svg>
