<?xml version="1.0" encoding="utf-8"?>
<!-- Generator: Adobe Illustrator 26.5.0, SVG Export Plug-In . SVG Version: 6.00 Build 0)  -->
<svg version="1.1" id="Capa_1" xmlns="http://www.w3.org/2000/svg" xmlns:xlink="http://www.w3.org/1999/xlink" x="0px" y="0px"
	 viewBox="0 0 30 30" style="enable-background:new 0 0 30 30;" xml:space="preserve">
<style type="text/css">
	.st0{fill:#FFFFFF;}
</style>
<path class="st0" d="M17.3,30c-0.2,0-0.3,0-0.4,0c-1.6,0-3.2,0-4.7,0c-0.3,0-0.4-0.1-0.4-0.4c0-4.3,0-8.6,0-12.9
	c0-0.3-0.1-0.4-0.4-0.4c-1.3,0-2.6,0-3.9,0c-0.3,0-0.3-0.1-0.3-0.3c0-1.6,0-3.1,0-4.7C7.2,11,7.3,11,7.5,11c1.3,0,2.6,0,3.9,0
	c0.3,0,0.4-0.1,0.4-0.4c0-1.6,0-3.2,0.1-4.8c0.1-1.8,0.9-3.4,2.4-4.5C15.5,0.4,16.9,0,18.4,0c1.4,0,2.7,0,4.1,0
	c0.3,0,0.3,0.1,0.3,0.3c0,1.4,0,2.9,0,4.3c0,0.3-0.1,0.3-0.3,0.3c-1,0-2.1,0-3.1,0c-1.3,0.1-2,0.7-2,2.1c-0.1,1.2,0,2.4,0,3.7
	c0,0.3,0.2,0.2,0.3,0.2c1,0,2,0,3,0c0.6,0,1.3,0,1.9,0c0,0.1,0,0.2,0,0.3c0,1.6,0,3.1,0,4.7c0,0.3-0.1,0.3-0.3,0.3c-1.5,0-3,0-4.6,0
	c-0.1,0-0.2,0-0.4,0C17.3,20.9,17.3,25.4,17.3,30z"/>
</svg>
