<?xml version="1.0" encoding="UTF-8"?>
<svg id="Capa_1" data-name="Capa 1" xmlns="http://www.w3.org/2000/svg" viewBox="0 0 29.96 29.96">
  <defs>
    <style>
      .cls-1 {
        fill: #fff;
      }
    </style>
  </defs>
  <path class="cls-1" d="M29.96,7.67v14.62c-.05,.31-.08,.62-.15,.92-.76,3.39-2.82,5.57-6.17,6.5-.44,.12-.89,.17-1.34,.25H7.68c-.09-.02-.19-.04-.28-.05-.82-.09-1.62-.27-2.36-.62C1.82,27.76,.08,25.21,.03,21.65c-.06-4.44-.02-8.89-.01-13.34,0-1.44,.32-2.81,1.05-4.05C2.72,1.46,5.19,.03,8.44,.01c4.37-.02,8.73-.01,13.1,0,.56,0,1.14,.03,1.68,.15,3.39,.75,5.56,2.81,6.49,6.16,.12,.44,.17,.9,.25,1.35Zm-2.65,7.34c0-2.17,0-4.35,0-6.52,0-.68-.07-1.36-.3-2.01-.85-2.38-2.9-3.81-5.49-3.81-4.35,0-8.69-.01-13.04,.01-.66,0-1.35,.09-1.98,.3-2.4,.81-3.82,2.88-3.83,5.47,0,4.36-.01,8.71,.01,13.07,0,.65,.09,1.33,.3,1.95,.8,2.38,2.87,3.83,5.43,3.83,4.39,.01,8.77,0,13.16,0,1.95,0,3.53-.78,4.69-2.36,.75-1.02,1.05-2.18,1.05-3.43,0-2.16,0-4.33,0-6.49Z"/>
  <path class="cls-1" d="M22.71,14.99c-.02,4.25-3.51,7.73-7.74,7.71-4.26-.02-7.73-3.52-7.7-7.74,.03-4.25,3.49-7.7,7.72-7.69,4.24,0,7.73,3.5,7.71,7.73Zm-7.71-5.07c-2.78-.01-5.05,2.25-5.06,5.05-.01,2.78,2.25,5.05,5.04,5.06,2.78,.01,5.05-2.25,5.06-5.05,.01-2.78-2.25-5.05-5.04-5.06Z"/>
  <path class="cls-1" d="M23.03,5.02c1.07,0,1.97,.89,1.95,1.95-.02,1.06-.89,1.93-1.95,1.93-1.07,0-1.96-.9-1.95-1.96,.01-1.06,.89-1.93,1.95-1.93Z"/>
</svg>