<?xml version="1.0" encoding="utf-8"?>
<!-- Generator: Adobe Illustrator 26.5.0, SVG Export Plug-In . SVG Version: 6.00 Build 0)  -->
<svg version="1.1" id="Capa_1" xmlns="http://www.w3.org/2000/svg" xmlns:xlink="http://www.w3.org/1999/xlink" x="0px" y="0px"
	 viewBox="0 0 30 30" style="enable-background:new 0 0 30 30;" xml:space="preserve">
<style type="text/css">
	.st0{fill:#FFFFFF;}
</style>
<g>
	<path class="st0" d="M29.8,15c0,2.6,0,5.3,0,7.9c0,4.3-2.7,6.9-6.9,6.9c-5.4,0-10.7,0-16.1,0c-4,0-6.7-2.6-6.8-6.7
		c0-5.5,0-11,0-16.5c0-4,2.8-6.6,6.7-6.6c5.5,0,10.9,0,16.4,0c3.9,0,6.6,2.7,6.7,6.6C29.8,9.4,29.8,12.2,29.8,15z M1.1,14.9
		c0,2.7,0,5.5,0,8.2c0,3.4,2.3,5.7,5.7,5.7c5.4,0,10.8,0,16.3,0c3.4,0,5.7-2.2,5.7-5.7c0-5.5,0-10.9,0-16.4C28.7,3.3,26.5,1,23,1
		C17.6,1,12.2,1,6.8,1C3.3,1,1.1,3.3,1.1,6.7C1,9.4,1.1,12.2,1.1,14.9z"/>
	<path class="st0" d="M21,25.2c0-2.2,0-4.3,0-6.4c0-0.7,0-1.4-0.1-2.1c-0.2-1.2-0.8-1.7-1.9-1.8c-1.2-0.1-2.1,0.4-2.4,1.5
		c-0.2,0.8-0.3,1.6-0.3,2.4c0,2.2,0,4.3,0,6.5c-1.4,0-2.8,0-4.2,0c0-4.6,0-9.2,0-13.8c1.3,0,2.6,0,4,0c0,0.5,0.1,1,0.1,1.7
		c1.4-1.7,3-2.3,5-2c2.4,0.3,3.7,1.5,4,3.8c0.2,1.6,0.2,3.3,0.2,5c0,1.7,0,3.3,0,5c0,0.1,0,0.1-0.1,0.3C23.9,25.2,22.5,25.2,21,25.2
		z"/>
	<path class="st0" d="M9.1,25.2c-1.3,0-2.7,0-4.1,0c0-4.6,0-9.1,0-13.8c1.4,0,2.7,0,4.1,0C9.1,16,9.1,20.6,9.1,25.2z"/>
	<path class="st0" d="M4.5,7c0-1.4,1.1-2.5,2.5-2.5c1.4,0,2.5,1.1,2.5,2.5c0,1.3-1.1,2.5-2.5,2.5C5.6,9.5,4.5,8.4,4.5,7z"/>
</g>
</svg>
